# Blender v2.79 (sub 0) OBJ File: ''
# www.blender.org
mtllib helmet_horns.mtl
o Sphere.002_Sphere.003
v 0.613825 0.148217 0.077897
v 0.378492 0.677024 -0.277716
v 0.456796 0.325734 0.239441
v 0.445002 0.552464 0.095740
v 0.170206 0.389453 0.347057
v 0.218124 0.764953 -0.113263
v 0.151329 0.673717 0.130370
v -0.052804 0.378482 0.340355
v -0.103006 0.620681 0.189325
v -0.291683 0.353816 0.282230
v -0.158720 0.726530 -0.018663
v -0.394044 0.529868 0.055264
v -0.529747 0.121940 0.043184
v -0.464893 0.513742 -0.225859
v 0.087207 0.768335 -0.286956
v -0.525923 0.022616 -0.251218
v -0.165077 0.740926 -0.281943
v -0.335064 0.538496 -0.436436
v -0.362112 0.357819 -0.522213
v -0.148123 0.205522 -0.638052
v 0.060318 0.363440 -0.661715
v 0.042926 0.649399 -0.513392
v 0.364781 0.506465 -0.517167
v 0.460289 0.298855 -0.516403
v 0.560307 0.483477 -0.248115
v -0.279952 0.035303 -0.547817
v 0.363912 0.039913 -0.533673
v 0.617649 0.026147 -0.207824
v 0.158663 0.009321 0.473285
v -0.068157 0.008756 0.471801
v 0.609087 0.069176 -0.079557
v 0.079882 0.690488 -0.375400
v 0.408045 0.599380 -0.250119
v 0.468715 0.289300 0.197120
v 0.383650 0.562781 0.069820
v 0.195088 0.724180 -0.146247
v 0.190608 0.633093 0.110860
v 0.144281 0.406380 0.310196
v -0.118566 0.593852 0.149015
v -0.300029 0.326401 0.238103
v -0.315899 0.583995 -0.005273
v -0.121101 0.726919 -0.123558
v -0.433945 0.465355 -0.154804
v -0.521185 0.068573 -0.081137
v -0.004817 0.734994 -0.249624
v -0.320143 0.577603 -0.307182
v -0.357484 0.406306 -0.448312
v -0.107186 0.601469 -0.467790
v -0.397759 0.046679 -0.406988
v -0.271757 0.245008 -0.545756
v -0.025966 0.349318 -0.614309
v 0.099234 0.008089 -0.605322
v 0.244637 0.312028 -0.534910
v 0.403201 0.348030 -0.507488
v 0.535868 0.448003 -0.221570
v 0.205006 0.605987 -0.463612
v 0.698705 0.523870 -0.358046
v 0.578650 0.378623 -0.264882
v 0.661843 0.589415 -0.230812
v 0.959802 1.066744 -0.545638
v 0.888020 0.802701 -0.383041
v 0.535153 0.472041 -0.135334
v 0.441839 0.573981 -0.110340
v 0.784447 0.857737 -0.325204
v 0.366087 0.638097 -0.141979
v 0.920027 1.127550 -0.544252
v 0.650768 0.850859 -0.401210
v 0.245740 0.675010 -0.364627
v 0.307964 0.555808 -0.511077
v 0.415332 0.442019 -0.531333
v 0.671907 0.761090 -0.520534
v 0.658348 0.626526 -0.520279
v 0.810307 0.663753 -0.464974
v 0.535153 0.361980 -0.423730
v 0.290627 0.681941 -0.224971
v -0.490747 0.378623 -0.264882
v -0.588000 0.565804 -0.252298
v -0.764004 0.781431 -0.343924
v -0.433348 0.494130 -0.117071
v -0.550280 0.715252 -0.223321
v -0.868327 1.083932 -0.507817
v -0.270082 0.646144 -0.139869
v -0.578829 0.841542 -0.347441
v -0.167444 0.689496 -0.303430
v -0.834235 1.116868 -0.556022
v -0.537264 0.809827 -0.474612
v -0.190175 0.596135 -0.485892
v -0.278185 0.490242 -0.529406
v -0.689208 0.772124 -0.539731
v -0.353936 0.421349 -0.510284
v -0.775566 0.744651 -0.472998
v -0.447250 0.361980 -0.423730
v -0.610147 0.529742 -0.406954
vn 0.5549 0.7973 -0.2374
vn 0.0602 0.9691 -0.2390
vn 0.2651 0.9541 0.1390
vn 0.6483 0.6098 0.4560
vn 0.8907 0.4229 -0.1669
vn 0.8316 0.3275 0.4485
vn 0.9530 0.2538 0.1653
vn -0.3281 0.9066 0.2654
vn 0.1562 0.7902 0.5926
vn -0.0786 0.4647 0.8820
vn -0.2186 0.6987 0.6813
vn -0.5580 0.4390 0.7042
vn -0.0923 0.9934 0.0682
vn -0.7276 0.5588 0.3978
vn -0.9599 0.2105 0.1853
vn -0.4424 0.8362 -0.3241
vn -0.8635 0.4898 -0.1207
vn -0.6529 0.2002 -0.7305
vn -0.5371 -0.1898 -0.8219
vn -0.9433 0.0525 -0.3278
vn -0.0171 0.6947 -0.7191
vn 0.0354 0.1935 -0.9805
vn -0.2606 -0.0576 -0.9637
vn 0.1125 -0.1854 -0.9762
vn 0.3064 -0.0876 -0.9479
vn 0.4938 0.4767 -0.7272
vn 0.3462 0.0346 -0.9375
vn 0.7604 -0.2428 -0.6024
vn 0.8479 0.0700 -0.5256
vn 0.9561 0.0210 -0.2924
vn -0.6366 -0.7401 0.2166
vn -0.2822 -0.9581 -0.0500
vn -0.4792 -0.7656 0.4291
vn -0.9018 -0.3358 -0.2719
vn -0.8965 -0.4216 0.1363
vn -0.9668 -0.2293 -0.1131
vn -0.6144 -0.6519 -0.4445
vn -0.4390 -0.4878 -0.7545
vn -0.1530 -0.5423 -0.8261
vn -0.1974 -0.8029 -0.5626
vn 0.2904 -0.9521 -0.0959
vn 0.1197 -0.9703 0.2104
vn 0.6249 -0.4910 -0.6070
vn 0.2517 -0.7394 -0.6245
vn 0.0719 -0.5198 -0.8512
vn 0.6470 -0.6855 -0.3339
vn 0.8020 -0.4161 -0.4284
vn 0.8983 -0.4385 0.0276
vn 0.6350 -0.7072 0.3109
vn 0.2691 -0.6781 0.6839
vn 0.8940 -0.0490 0.4453
vn 0.7238 -0.3164 0.6132
vn 0.9606 -0.1464 0.2364
vn 0.0533 -0.2111 0.9760
vn -0.2186 -0.1601 0.9626
vn -0.2678 -0.0940 0.9589
vn 0.1223 0.4972 0.8590
vn -0.1340 -0.1553 0.9787
vn -0.1070 -0.4654 0.8786
vn -0.7871 0.0481 0.6149
vn -0.9474 -0.1257 0.2943
vn -0.7852 -0.2677 0.5584
vn -0.0217 -0.3665 -0.9302
vn -0.1979 -0.9277 0.3165
vn -0.2642 -0.8222 0.5041
vn -0.4304 -0.7984 0.4210
vn 0.0383 -0.8520 0.5221
vn 0.3556 -0.8226 0.4438
vn 0.2500 -0.8429 0.4764
vn -0.8431 -0.5127 0.1620
vn 0.7680 0.0449 0.6388
vn 0.8431 -0.4903 0.2208
vn 0.7426 -0.2312 -0.6285
vn 0.3996 0.5055 0.7647
vn -0.0256 0.3257 0.9451
vn -0.5707 0.5664 -0.5946
vn -0.1840 -0.9463 0.2657
vn -0.0879 -0.8832 0.4608
vn 0.9714 -0.1863 0.1469
vn 0.7452 -0.0068 0.6669
vn 0.3597 0.0313 0.9325
vn 0.3695 0.3636 0.8551
vn 0.2923 0.2240 0.9297
vn -0.2209 -0.0924 0.9709
vn 0.0070 -0.3797 -0.9251
vn -0.4364 -0.7988 0.4141
vn -0.0424 -0.8450 0.5330
vn -0.0680 -0.9974 0.0237
vn 0.4354 -0.8721 0.2235
vn 0.7791 -0.3872 0.4930
vn 0.7752 -0.4221 0.4700
vn 0.7556 -0.3840 0.5306
vn 0.7938 -0.4514 0.4075
vn 0.8981 -0.4361 -0.0573
vn 0.0933 0.5270 0.8447
vn -0.1485 0.8382 0.5248
vn -0.3042 0.8130 0.4965
vn -0.1207 0.8282 0.5473
vn -0.3474 0.7654 0.5418
vn -0.3840 0.6906 0.6129
vn -0.3909 0.9170 0.0801
vn -0.7389 0.4690 -0.4837
vn -0.5324 0.6172 -0.5793
vn -0.5713 0.6041 -0.5557
vn -0.3731 0.6527 -0.6594
vn -0.0646 -0.0140 -0.9978
vn 0.0245 -0.0052 -0.9997
vn -0.0802 0.0161 -0.9966
vn 0.3921 -0.3182 -0.8631
vn 0.4014 -0.4766 -0.7821
vn 0.4848 -0.5551 -0.6759
vn 0.6167 -0.5875 -0.5239
vn 0.3938 -0.4714 -0.7891
vn 0.6416 -0.6285 -0.4396
vn 0.7231 -0.6790 -0.1269
vn -0.7008 -0.2558 0.6659
vn -0.5372 0.0402 0.8425
vn -0.7676 -0.3027 0.5650
vn -0.0428 0.6277 0.7773
vn 0.2369 0.7136 0.6593
vn 0.2398 0.7142 0.6576
vn 0.4422 0.8095 -0.3862
vn 0.5316 0.8413 -0.0980
vn 0.5569 0.8302 -0.0250
vn 0.7100 0.7019 0.0570
vn 0.4577 0.7671 -0.4495
vn 0.3421 0.2052 -0.9170
vn 0.3680 0.1112 -0.9231
vn 0.2967 0.2887 -0.9103
vn 0.1674 0.2969 -0.9401
vn 0.1387 0.2756 -0.9512
vn -0.0924 -0.1707 -0.9810
vn -0.5204 -0.4031 -0.7528
vn -0.6620 -0.2611 -0.7026
vn -0.5070 -0.4196 -0.7529
vn -0.7926 -0.5613 0.2383
vn -0.8133 -0.5587 0.1626
vn -0.7180 -0.6847 -0.1249
vn 0.5706 0.3193 0.7566
vn 0.5252 0.1757 0.8327
vn 0.5425 0.2256 0.8092
vn 0.4585 0.2079 0.8640
vn 0.4836 0.1061 0.8688
vn 0.4710 0.1604 0.8675
vn -0.8829 -0.4229 0.2041
vn -0.8909 -0.4078 0.2001
vn -0.3754 0.6343 -0.6758
vn -0.0818 0.0993 -0.9917
vn -0.0626 0.0840 -0.9945
vn -0.0599 -0.0165 -0.9981
vn 0.9009 -0.3772 -0.2148
vn 0.8561 -0.5135 0.0588
vn -0.9568 -0.2456 0.1557
vn -0.4799 -0.4489 -0.7538
vn -0.4758 -0.5129 -0.7145
vn -0.4106 0.2644 0.8727
vn -0.3823 0.3348 0.8612
vn -0.1898 0.3419 0.9204
vn 0.0707 0.7154 0.6952
vn 0.1798 0.7344 0.6544
vn 0.2784 0.8707 0.4055
vn -0.4813 -0.3888 -0.7856
vn -0.6963 -0.2591 -0.6694
usemtl Black.001
s 1
f 2//1 15//2 6//3
f 2//1 4//4 25//5
f 4//4 3//6 1//7
f 6//3 11//8 7//9
f 8//10 9//11 10//12
f 15//2 17//13 6//3
f 11//8 12//14 9//11
f 10//12 12//14 13//15
f 17//16 14//17 11//8
f 19//18 26//19 16//20
f 17//16 15//2 22//21
f 19//18 22//21 21//22
f 20//23 52//24 26//19
f 52//24 21//22 27//25
f 21//22 23//26 24//27
f 27//28 24//29 28//30
f 22//21 15//2 2//1
f 2//1 25//5 23//26
f 33//31 36//32 56//33
f 34//34 55//35 31//36
f 35//37 33//31 55//35
f 34//38 38//39 35//37
f 37//40 36//32 35//37
f 42//41 45//42 36//32
f 40//43 39//44 8//45
f 40//43 41//46 39//44
f 13//47 43//48 41//46
f 43//48 46//49 41//46
f 46//49 42//41 41//46
f 46//49 48//50 42//41
f 49//51 47//52 44//53
f 51//54 48//50 47//52
f 53//55 51//54 52//56
f 9//11 8//10 5//57 7//9
f 54//58 56//59 53//55
f 27//60 28//61 54//62
f 28//61 55//35 54//62
f 33//31 56//33 54//62
f 55//35 33//31 54//62
f 30//63 8//45 38//39
f 3//64 34//65 1//66
f 10//67 13//68 40//69
f 16//70 44//70 13//70
f 26//71 49//71 16//71
f 1//72 31//72 28//72
f 29//73 38//73 5//73
f 28//30 25//5 1//7
f 25//5 4//4 1//7
f 2//1 6//3 4//4
f 4//4 5//57 3//74
f 4//4 6//3 7//9
f 5//57 4//4 7//9
f 29//75 5//57 8//10 30//75
f 9//11 7//9 11//8
f 11//8 6//3 17//13
f 10//12 9//11 12//14
f 12//14 11//8 14//17
f 13//15 12//14 14//17
f 13//15 14//17 16//20
f 14//17 17//16 18//76
f 14//17 18//76 19//18
f 14//17 19//18 16//20
f 17//16 22//21 18//76
f 19//18 20//23 26//19
f 19//18 18//76 22//21
f 19//18 21//22 20//23
f 52//24 20//23 21//22
f 21//22 22//21 23//26
f 27//25 21//22 24//27
f 23//26 22//21 2//1
f 24//29 23//26 25//5
f 28//30 24//29 25//5
f 38//77 34//65 3//64 5//77
f 56//33 36//32 32//78
f 36//32 45//42 32//78
f 33//31 35//37 36//32
f 34//34 35//37 55//35
f 35//37 38//39 37//40
f 38//39 39//44 37//40
f 37//40 42//41 36//32
f 39//44 42//41 37//40
f 8//45 39//44 38//39
f 39//44 41//46 42//41
f 40//43 13//47 41//46
f 13//79 44//53 43//48
f 43//48 47//52 46//49
f 44//53 47//52 43//48
f 42//41 48//50 45//42
f 49//51 50//80 47//52
f 48//50 32//78 45//42
f 46//49 47//52 48//50
f 47//52 50//81 51//54
f 49//82 52//83 50//81
f 50//81 52//83 51//54
f 51//54 56//59 48//50
f 52//56 27//84 53//55
f 48//50 56//59 32//78
f 51//54 53//55 56//59
f 27//84 54//58 53//55
f 28//61 31//36 55//35
f 38//39 29//85 30//63
f 1//66 34//65 31//86
f 10//67 40//69 8//87
f 26//88 52//88 49//88
f 16//89 49//89 44//89
usemtl Silver.001
f 58//90 59//91 62//92
f 57//93 61//94 59//91
f 63//95 64//95 65//95
f 65//96 67//97 75//98
f 64//99 66//100 67//97
f 75//101 67//101 68//101
f 66//102 71//103 67//104
f 67//104 71//103 68//105
f 66//106 72//107 71//108
f 60//109 73//110 72//111
f 72//111 74//112 70//113
f 73//110 57//114 72//111
f 57//114 58//115 74//112
f 79//116 80//117 77//118
f 80//119 85//120 81//121
f 84//122 86//123 83//124
f 86//123 85//125 83//124
f 87//126 86//123 84//122
f 89//127 85//128 86//129
f 88//130 86//129 87//131
f 90//132 89//132 88//132
f 91//133 85//134 89//135
f 76//136 93//137 92//138
f 66//139 64//140 61//141 60//139
f 58//90 57//93 59//91
f 62//142 59//143 63//144
f 64//140 63//144 59//143 61//141
f 78//145 91//146 93//137 77//118
f 65//96 64//99 67//97
f 68//105 71//103 69//147
f 69//148 71//108 70//149
f 71//108 72//107 70//149
f 66//106 60//150 72//107
f 72//111 57//114 74//112
f 60//151 61//94 73//152
f 73//152 61//94 57//93
f 91//146 78//145 81//153
f 89//135 90//154 93//155 91//133
f 76//136 79//116 77//118
f 77//118 80//117 78//156
f 78//156 80//117 81//157
f 79//158 82//159 80//119
f 80//119 82//159 83//160
f 80//119 83//160 85//120
f 82//159 84//161 83//160
f 88//130 89//127 86//129
f 92//162 93//155 90//154
f 91//133 81//163 85//134
f 76//136 77//118 93//137
