# Blender v2.79 (sub 0) OBJ File: ''
# www.blender.org
mtllib speaker_floor.mtl
o Cube.002
v -0.186943 0.216759 0.466901
v -0.753336 0.216759 0.466901
v -0.951041 0.019054 -0.480901
v -0.186943 0.783152 0.466901
v -0.753336 0.783152 0.466901
v -0.470140 0.099455 0.466901
v -0.470140 0.900456 0.466901
v -0.069639 0.499955 0.466901
v -0.870640 0.499955 0.466901
v -0.951041 0.499955 -0.480901
v -0.470140 0.499955 0.466960
v -0.470140 0.648691 0.396785
v -0.321404 0.499955 0.396785
v -0.528985 0.441110 0.444150
v -0.411295 0.558800 0.444150
v -0.528985 0.558800 0.444150
v -0.411295 0.441110 0.444150
v -0.470140 0.351219 0.396785
v -0.618876 0.499955 0.396785
v -0.470140 0.416736 0.444150
v -0.575312 0.394783 0.396785
v -0.386920 0.499955 0.444150
v -0.364968 0.605127 0.396785
v -0.553359 0.499955 0.444150
v -0.575312 0.605127 0.396785
v -0.470140 0.583175 0.444150
v -0.364968 0.394783 0.396785
v -0.470140 0.019054 0.466901
v -0.951041 0.019054 0.466901
v 0.010761 0.499955 0.466901
v -0.951041 0.499955 0.466901
v -0.951041 0.980856 0.466901
v -0.470140 0.980856 0.466901
v 0.010762 0.019054 0.466901
v 0.774860 0.216759 0.466901
v 0.208467 0.216759 0.466901
v 0.972565 0.019054 -0.480901
v 0.774860 0.783152 0.466901
v 0.208466 0.783152 0.466901
v 0.491663 0.099455 0.466901
v 0.491663 0.900456 0.466901
v 0.892164 0.499955 0.466901
v 0.091163 0.499955 0.466901
v 0.972565 0.499955 -0.480901
v 0.491663 0.499955 0.466960
v 0.491663 0.648691 0.396785
v 0.640399 0.499955 0.396785
v 0.432818 0.441110 0.444150
v 0.550508 0.558800 0.444150
v 0.432818 0.558800 0.444150
v 0.550508 0.441110 0.444150
v 0.491663 0.351219 0.396785
v 0.342927 0.499955 0.396785
v 0.491663 0.416736 0.444150
v 0.386491 0.394783 0.396785
v 0.574883 0.499955 0.444150
v 0.596835 0.605127 0.396785
v 0.408444 0.499955 0.444150
v 0.386491 0.605127 0.396785
v 0.491663 0.583175 0.444150
v 0.596835 0.394783 0.396785
v 0.491663 0.019054 0.466901
v 0.972564 0.499955 0.466901
v 0.972564 0.980856 0.466901
v 0.010762 0.980856 0.466901
v 0.491663 0.980856 0.466901
v 0.972564 0.019054 0.466901
vn 0.0000 0.0000 1.0000
vn 0.0000 -0.0000 -1.0000
vn -1.0000 -0.0000 -0.0000
vn -0.3300 0.3300 0.8844
vn -0.4667 0.0000 0.8844
vn 0.3300 0.3300 0.8844
vn 0.4667 0.0000 0.8844
vn 0.3300 -0.3300 0.8844
vn 0.0000 -0.4667 0.8844
vn -0.3300 -0.3300 0.8844
vn 0.0000 -0.5859 0.8104
vn 0.4143 0.4143 0.8104
vn -0.5859 0.0000 0.8104
vn -0.0000 0.4667 0.8844
vn -0.4143 0.4143 0.8104
vn 0.4143 -0.4143 0.8104
vn -0.0000 0.5859 0.8104
vn 0.5859 -0.0000 0.8104
vn -0.4143 -0.4143 0.8104
vn 1.0000 0.0000 0.0000
vn 0.0000 0.8918 -0.4525
vn 0.0000 -1.0000 0.0000
vn -0.1897 -0.1897 0.9633
vn 0.0000 -0.2683 0.9633
vn 0.2683 0.0000 0.9633
vn 0.1897 0.1897 0.9633
vn 0.1897 -0.1897 0.9633
vn -0.0000 0.2683 0.9633
vn -0.1897 0.1897 0.9633
vn -0.2683 -0.0000 0.9633
usemtl Black
s 1
f 33//1 4//1 65//1
f 28//1 1//1 6//1
f 37//2 10//2 44//2
f 30//1 1//1 34//1
f 31//3 3//3 29//3
f 31//1 2//1 9//1
f 31//3 32//3 10//3
f 33//1 5//1 7//1
f 31//1 5//1 32//1
f 11//1 16//4 24//5
f 15//6 11//1 22//7
f 17//8 11//1 20//9
f 11//1 14//10 20//9
f 14//10 18//11 20//9
f 22//7 23//12 15//6
f 16//4 19//13 24//5
f 26//14 25//15 16//4
f 20//9 27//16 17//8
f 15//6 12//17 26//14
f 17//8 13//18 22//7
f 24//5 21//19 14//10
f 30//1 4//1 8//1
f 2//1 28//1 6//1
f 66//1 38//1 64//1
f 62//1 35//1 40//1
f 64//20 63//20 44//20
f 63//1 35//1 67//1
f 30//1 36//1 43//1
f 10//21 33//21 65//21
f 37//22 67//22 62//22
f 67//20 44//20 63//20
f 66//1 39//1 41//1
f 30//1 39//1 65//1
f 45//1 50//4 58//5
f 49//6 45//1 56//7
f 51//8 45//1 54//9
f 45//1 48//10 54//9
f 48//10 52//11 54//9
f 49//6 47//18 57//12
f 50//4 53//13 58//5
f 60//14 59//15 50//4
f 54//9 61//16 51//8
f 49//6 46//17 60//14
f 51//8 47//18 56//7
f 48//10 53//13 55//19
f 63//1 38//1 42//1
f 36//1 62//1 40//1
f 33//1 7//1 4//1
f 28//1 34//1 1//1
f 37//2 3//2 10//2
f 30//1 8//1 1//1
f 31//3 10//3 3//3
f 31//1 29//1 2//1
f 33//1 32//1 5//1
f 31//1 9//1 5//1
f 11//1 26//14 16//4
f 15//6 26//14 11//1
f 17//8 22//7 11//1
f 11//1 24//5 14//10
f 14//10 21//19 18//11
f 22//7 13//18 23//12
f 16//4 25//15 19//13
f 26//14 12//17 25//15
f 20//9 18//11 27//16
f 15//6 23//12 12//17
f 17//8 27//16 13//18
f 24//5 19//13 21//19
f 30//1 65//1 4//1
f 2//1 29//1 28//1
f 66//1 41//1 38//1
f 62//1 67//1 35//1
f 63//1 42//1 35//1
f 30//1 34//1 36//1
f 64//21 44//21 66//21
f 44//21 10//21 65//21
f 66//21 44//21 65//21
f 10//21 32//21 33//21
f 62//22 34//22 37//22
f 34//22 28//22 3//22
f 28//22 29//22 3//22
f 3//22 37//22 34//22
f 67//20 37//20 44//20
f 66//1 65//1 39//1
f 30//1 43//1 39//1
f 45//1 60//14 50//4
f 49//6 60//14 45//1
f 51//8 56//7 45//1
f 45//1 58//5 48//10
f 48//10 55//19 52//11
f 49//6 56//7 47//18
f 50//4 59//15 53//13
f 60//14 46//17 59//15
f 54//9 52//11 61//16
f 49//6 57//12 46//17
f 51//8 61//16 47//18
f 48//10 58//5 53//13
f 63//1 64//1 38//1
f 36//1 34//1 62//1
usemtl Silver
f 23//23 7//24 12//24
f 19//25 2//26 21//26
f 25//27 9//25 19//25
f 18//28 1//29 27//29
f 12//24 5//27 25//27
f 13//30 4//23 23//23
f 27//29 8//30 13//30
f 21//26 6//28 18//28
f 57//23 41//24 46//24
f 53//25 36//26 55//26
f 59//27 43//25 53//25
f 52//28 35//29 61//29
f 59//27 41//24 39//27
f 47//30 38//23 57//23
f 47//30 35//29 42//30
f 52//28 36//26 40//28
f 23//23 4//23 7//24
f 19//25 9//25 2//26
f 25//27 5//27 9//25
f 18//28 6//28 1//29
f 12//24 7//24 5//27
f 13//30 8//30 4//23
f 27//29 1//29 8//30
f 21//26 2//26 6//28
f 57//23 38//23 41//24
f 53//25 43//25 36//26
f 59//27 39//27 43//25
f 52//28 40//28 35//29
f 59//27 46//24 41//24
f 47//30 42//30 38//23
f 47//30 61//29 35//29
f 52//28 55//26 36//26
