# Blender v2.79 (sub 0) OBJ File: 'headbanger_props_dec.blend'
# www.blender.org
mtllib speaker_bent.mtl
o Cube.001
v 1.004623 -1.280639 -0.588887
v 1.004623 -1.280639 0.588888
v -1.030802 -1.119200 1.000000
v -1.030801 -1.119200 -1.000000
v 1.332236 -0.149346 -0.588887
v 1.332236 -0.149346 0.588888
v -0.474476 0.801867 1.000000
v -0.474475 0.801867 -1.000000
v 0.936772 -1.514937 0.000000
v 1.400087 0.084952 0.000001
v 1.168429 -0.714993 -0.832812
v 1.168429 -0.714993 0.832813
v 1.140584 -0.706929 0.000000
v 1.086451 -0.369259 0.000000
v 1.000419 -0.666338 -0.309285
v 1.060987 -0.811270 0.122364
v 1.129061 -0.576200 -0.122364
v 1.129061 -0.576200 0.122364
v 1.060987 -0.811270 -0.122364
v 0.914387 -0.963418 0.000000
v 1.000419 -0.666338 0.309286
v 1.046888 -0.859954 0.000000
v 0.939586 -0.876405 0.218698
v 1.095024 -0.693735 -0.173049
v 1.061253 -0.456272 -0.218698
v 1.095024 -0.693735 0.173049
v 1.061253 -0.456272 0.218698
v 1.143160 -0.527516 0.000000
v 0.939586 -0.876405 -0.218698
v 0.827885 -1.657462 0.000000
v 0.827885 -1.657462 1.000000
v 1.106048 -0.696928 -1.000000
v 1.384211 0.263606 -0.999999
v 1.106048 -0.696927 1.000000
v 1.384210 0.263606 1.000001
v 1.384211 0.263606 0.000001
v 0.827885 -1.657462 -1.000000
v 1.004623 -1.280639 -2.588888
v 1.004623 -1.280639 -1.411113
v -1.030801 -1.119200 -3.000001
v 1.332236 -0.149346 -2.588888
v 1.332236 -0.149346 -1.411113
v -0.474475 0.801867 -3.000001
v 0.936772 -1.514937 -2.000001
v 1.400087 0.084952 -2.000000
v 1.168429 -0.714993 -2.832813
v 1.168429 -0.714993 -1.167188
v -0.752638 -0.158667 -3.000001
v 1.140584 -0.706929 -2.000001
v 1.086451 -0.369259 -2.000001
v 1.000419 -0.666338 -2.309286
v 1.060987 -0.811270 -1.877637
v 1.129061 -0.576200 -2.122365
v 1.129061 -0.576200 -1.877637
v 1.060987 -0.811270 -2.122365
v 0.914387 -0.963418 -2.000001
v 1.000419 -0.666338 -1.690715
v 1.046888 -0.859954 -2.000001
v 0.939586 -0.876405 -1.781303
v 1.095024 -0.693735 -2.173049
v 1.061253 -0.456272 -2.218699
v 1.095024 -0.693735 -1.826952
v 1.061253 -0.456272 -1.781303
v 1.143160 -0.527516 -2.000001
v 0.939586 -0.876405 -2.218699
v 0.827885 -1.657462 -2.000001
v 1.106048 -0.696928 -3.000001
v 1.384211 0.263606 -3.000000
v 1.384211 0.263606 -2.000000
v 0.827885 -1.657462 -3.000001
v 1.556326 1.332180 -0.588887
v 1.556326 1.332180 0.588888
v -0.443674 0.921068 1.000000
v -0.443673 0.921068 -1.000000
v 1.556326 2.509955 -0.588887
v 1.556326 2.509955 0.588888
v -0.443674 2.921068 1.000000
v -0.443674 2.921068 -1.000000
v 1.556326 1.088255 0.000000
v 1.556326 2.753880 0.000001
v 1.556326 1.921068 -0.832812
v 1.556326 1.921068 0.832813
v 1.527337 1.921068 0.000000
v 1.381413 2.230353 0.000000
v 1.381413 1.921068 -0.309285
v 1.479905 1.798704 0.122364
v 1.479905 2.043432 -0.122364
v 1.479905 2.043432 0.122364
v 1.479905 1.798704 -0.122364
v 1.381413 1.611782 0.000000
v 1.381413 1.921068 0.309286
v 1.479905 1.748019 0.000000
v 1.381413 1.702370 0.218698
v 1.479905 1.921068 -0.173049
v 1.381413 2.139766 -0.218698
v 1.479905 1.921068 0.173049
v 1.381413 2.139766 0.218698
v 1.479905 2.094117 0.000000
v 1.381413 1.702370 -0.218698
v 1.491382 0.921068 0.000000
v 1.491382 0.921068 1.000000
v 1.491382 1.921068 -1.000000
v 1.491382 2.921068 -0.999999
v 1.491381 1.921068 1.000000
v 1.491381 2.921068 1.000001
v 1.491382 2.921068 0.000001
v 1.491382 0.921068 -1.000000
v 1.556326 1.332180 -2.588888
v 1.556326 1.332180 -1.411113
v -0.443673 0.921068 -3.000001
v 1.556326 2.509955 -2.588888
v 1.556326 2.509955 -1.411113
v -0.443674 2.921068 -3.000001
v 1.556326 1.088255 -2.000001
v 1.556326 2.753880 -2.000000
v 1.556326 1.921068 -2.832813
v 1.556326 1.921068 -1.167188
v -0.443673 1.921068 -3.000001
v 1.527337 1.921068 -2.000001
v 1.381413 2.230353 -2.000001
v 1.381413 1.921068 -2.309286
v 1.479905 1.798704 -1.877637
v 1.479905 2.043432 -2.122365
v 1.479905 2.043432 -1.877637
v 1.479905 1.798704 -2.122365
v 1.381413 1.611782 -2.000001
v 1.381413 1.921068 -1.690715
v 1.479905 1.748019 -2.000001
v 1.381413 1.702370 -1.781303
v 1.479905 1.921068 -2.173049
v 1.381413 2.139766 -2.218699
v 1.479905 1.921068 -1.826952
v 1.381413 2.139766 -1.781303
v 1.479905 2.094117 -2.000001
v 1.381413 1.702370 -2.218699
v 1.491382 0.921068 -2.000001
v 1.491382 1.921068 -3.000001
v 1.491382 2.921068 -3.000000
v 1.491382 2.921068 -2.000000
v 1.491382 0.921068 -3.000001
v 1.359466 3.995346 -0.588887
v 1.359466 3.995346 0.588888
v -0.447245 3.044132 1.000000
v -0.447245 3.044132 -1.000000
v 1.031853 5.126638 -0.588887
v 1.031852 5.126638 0.588888
v -1.003572 4.965199 1.000000
v -1.003571 4.965200 -1.000000
v 1.427317 3.761047 0.000000
v 0.964002 5.360937 0.000001
v 1.195660 4.560992 -0.832812
v 1.195659 4.560992 0.832813
v 1.167814 4.552928 0.000000
v 0.941617 4.809416 0.000000
v 1.027649 4.512337 -0.309285
v 1.156291 4.422200 0.122364
v 1.088217 4.657269 -0.122364
v 1.088217 4.657269 0.122364
v 1.156291 4.422200 -0.122364
v 1.113681 4.215258 0.000000
v 1.027649 4.512337 0.309286
v 1.170390 4.373515 0.000000
v 1.088483 4.302271 0.218698
v 1.122254 4.539734 -0.173049
v 0.966816 4.722404 -0.218698
v 1.122254 4.539734 0.173049
v 0.966815 4.722404 0.218698
v 1.074118 4.705954 0.000000
v 1.088483 4.302271 -0.218698
v 1.411441 3.582393 0.000000
v 1.411441 3.582393 1.000000
v 1.133278 4.542927 -1.000000
v 0.855115 5.503460 -0.999999
v 1.133278 4.542927 1.000000
v 0.855114 5.503460 1.000001
v 0.855115 5.503460 0.000001
v 1.411441 3.582393 -1.000000
v 1.359466 3.995346 -2.588888
v 1.359466 3.995346 -1.411113
v -0.447245 3.044132 -3.000001
v 1.031853 5.126638 -2.588888
v 1.031852 5.126638 -1.411113
v -1.003571 4.965200 -3.000001
v 1.427317 3.761047 -2.000001
v 0.964002 5.360937 -2.000000
v 1.195660 4.560992 -2.832813
v 1.195659 4.560992 -1.167188
v -0.725408 4.004666 -3.000001
v 1.167814 4.552928 -2.000001
v 0.941617 4.809416 -2.000001
v 1.027649 4.512337 -2.309286
v 1.156291 4.422200 -1.877637
v 1.088217 4.657269 -2.122365
v 1.088217 4.657269 -1.877637
v 1.156291 4.422200 -2.122365
v 1.113681 4.215258 -2.000001
v 1.027649 4.512337 -1.690715
v 1.170390 4.373515 -2.000001
v 1.088483 4.302271 -1.781303
v 1.122254 4.539734 -2.173049
v 0.966816 4.722404 -2.218699
v 1.122254 4.539734 -1.826952
v 0.966815 4.722404 -1.781303
v 1.074118 4.705954 -2.000001
v 1.088483 4.302271 -2.218699
v 1.411441 3.582393 -2.000001
v 1.133278 4.542927 -3.000001
v 0.855115 5.503460 -3.000000
v 0.855115 5.503460 -2.000000
v 1.411441 3.582393 -3.000001
v 0.429581 6.498647 -0.588887
v 0.429581 6.498647 0.588888
v -1.041234 5.082413 1.000000
v -1.041234 5.082413 -1.000000
v -0.199786 7.494162 -0.588887
v -0.199787 7.494162 0.588888
v -2.109974 6.772914 1.000000
v -2.109974 6.772915 -1.000000
v 0.559928 6.292469 0.000000
v -0.330133 7.700339 0.000001
v 0.114898 6.996404 -0.832812
v 0.114897 6.996404 0.832813
v 0.090394 6.980913 0.000000
v -0.198221 7.164360 0.000000
v -0.032948 6.902936 -0.309285
v 0.115690 6.852139 0.122364
v -0.015085 7.058995 -0.122364
v -0.015085 7.058995 0.122364
v 0.115690 6.852139 -0.122364
v 0.132325 6.641512 0.000000
v -0.032948 6.902936 0.309286
v 0.142774 6.809297 0.000000
v 0.083918 6.718081 0.218698
v 0.050302 6.955567 -0.173049
v -0.149814 7.087790 -0.218698
v 0.050302 6.955567 0.173049
v -0.149814 7.087790 0.218698
v -0.042170 7.101837 0.000000
v 0.083917 6.718081 -0.218698
v 0.594373 6.116449 0.000000
v 0.594373 6.116449 1.000000
v 0.060003 6.961700 -1.000000
v -0.474367 7.806951 -0.999999
v 0.060003 6.961699 1.000000
v -0.474368 7.806951 1.000001
v -0.474367 7.806951 0.000001
v 0.594373 6.116449 -1.000000
v 0.429581 6.498647 -2.588888
v 0.429581 6.498647 -1.411113
v -1.041234 5.082413 -3.000001
v -0.199786 7.494162 -2.588888
v -0.199787 7.494162 -1.411113
v -2.109974 6.772915 -3.000001
v 0.559928 6.292469 -2.000001
v -0.330133 7.700339 -2.000000
v 0.114898 6.996404 -2.832813
v 0.114897 6.996404 -1.167188
v -1.575603 5.927664 -3.000001
v 0.090394 6.980913 -2.000001
v -0.198221 7.164360 -2.000001
v -0.032948 6.902936 -2.309286
v 0.115690 6.852139 -1.877637
v -0.015085 7.058995 -2.122365
v -0.015085 7.058995 -1.877637
v 0.115690 6.852139 -2.122365
v 0.132325 6.641512 -2.000001
v -0.032948 6.902936 -1.690715
v 0.142774 6.809297 -2.000001
v 0.083918 6.718081 -1.781303
v 0.050302 6.955567 -2.173049
v -0.149814 7.087790 -2.218699
v 0.050302 6.955567 -1.826952
v -0.149814 7.087790 -1.781303
v -0.042170 7.101837 -2.000001
v 0.083917 6.718081 -2.218699
v 0.594373 6.116449 -2.000001
v 0.060003 6.961700 -3.000001
v -0.474367 7.806951 -3.000000
v -0.474367 7.806951 -2.000000
v 0.594373 6.116449 -3.000001
vn 0.9797 -0.1638 -0.1152
vn 0.9966 -0.0820 0.0000
vn 0.8862 -0.4633 -0.0000
vn 0.9156 -0.3851 -0.1152
vn -0.9605 0.2782 -0.0000
vn 0.9414 -0.2726 -0.1985
vn -0.0000 -0.0000 1.0000
vn 0.9414 -0.2726 0.1985
vn 0.9156 -0.3851 0.1152
vn 0.2782 0.9605 0.0000
vn 0.9797 -0.1638 0.1152
vn 0.9605 -0.2782 0.0000
vn 0.9847 0.1745 0.0000
vn 0.9412 0.0714 0.3304
vn 0.8619 -0.2496 0.4415
vn 0.8619 -0.2496 -0.4415
vn 0.9412 0.0714 -0.3304
vn 0.7574 -0.5633 -0.3304
vn 0.7391 -0.6736 0.0000
vn 0.7574 -0.5633 0.3304
vn 0.6632 -0.6234 0.4143
vn 0.6154 -0.7882 -0.0000
vn 0.7784 -0.2254 -0.5859
vn 0.8937 0.1725 -0.4143
vn 0.8937 0.1725 0.4143
vn 0.7784 -0.2254 0.5859
vn 0.9414 0.3373 0.0000
vn 0.6632 -0.6234 -0.4143
vn -0.2782 -0.9605 -0.0000
vn 0.0000 0.0000 -1.0000
vn 0.9866 0.1152 -0.1152
vn 0.9801 0.1985 0.0000
vn 0.9801 -0.1985 0.0000
vn 0.9866 -0.1152 -0.1152
vn -1.0000 -0.0000 -0.0000
vn 0.9801 -0.0000 -0.1985
vn 0.9801 0.0000 0.1985
vn 0.9866 -0.1152 0.1152
vn 0.0000 1.0000 0.0000
vn 0.9866 0.1152 0.1152
vn 1.0000 -0.0000 0.0000
vn 0.8973 0.4415 0.0000
vn 0.8842 0.3304 0.3304
vn 0.8973 -0.0000 0.4415
vn 0.8973 -0.0000 -0.4415
vn 0.8842 0.3304 -0.3304
vn 0.8842 -0.3304 -0.3304
vn 0.8973 -0.4415 0.0000
vn 0.8842 -0.3304 0.3304
vn 0.8104 -0.4143 0.4143
vn 0.8104 -0.5859 0.0000
vn 0.8104 -0.0000 -0.5859
vn 0.8104 0.4143 -0.4143
vn 0.8104 0.4143 0.4143
vn 0.8104 -0.0000 0.5859
vn 0.8104 0.5859 0.0000
vn 0.8104 -0.4143 -0.4143
vn 0.0000 -1.0000 -0.0000
vn 0.9156 0.3851 -0.1152
vn 0.8862 0.4633 0.0000
vn 0.9966 0.0820 0.0000
vn 0.9797 0.1638 -0.1152
vn -0.9605 -0.2782 -0.0000
vn 0.9414 0.2726 -0.1985
vn 0.9414 0.2726 0.1985
vn 0.9797 0.1638 0.1152
vn -0.2782 0.9605 0.0000
vn 0.9156 0.3851 0.1152
vn 0.9605 0.2782 -0.0000
vn 0.7391 0.6736 -0.0000
vn 0.7574 0.5633 0.3304
vn 0.8619 0.2496 0.4415
vn 0.8619 0.2496 -0.4415
vn 0.7574 0.5633 -0.3304
vn 0.9412 -0.0714 -0.3304
vn 0.9847 -0.1745 -0.0000
vn 0.9412 -0.0714 0.3304
vn 0.8937 -0.1725 0.4143
vn 0.9414 -0.3373 -0.0000
vn 0.7784 0.2254 -0.5859
vn 0.6632 0.6234 -0.4143
vn 0.6632 0.6234 0.4143
vn 0.7784 0.2254 0.5859
vn 0.6154 0.7882 0.0000
vn 0.8937 -0.1725 -0.4143
vn 0.2782 -0.9605 -0.0000
vn 0.7724 0.6246 -0.1152
vn 0.7224 0.6915 0.0000
vn 0.9345 0.3560 -0.0000
vn 0.8955 0.4298 -0.1152
vn -0.8453 -0.5344 -0.0000
vn 0.8284 0.5237 -0.1985
vn 0.8284 0.5237 0.1985
vn 0.8955 0.4298 0.1152
vn -0.5344 0.8453 -0.0000
vn 0.7724 0.6246 0.1152
vn 0.8453 0.5344 0.0000
vn 0.5225 0.8526 -0.0000
vn 0.5708 0.7517 0.3304
vn 0.7584 0.4795 0.4415
vn 0.7584 0.4795 -0.4415
vn 0.5708 0.7517 -0.3304
vn 0.9239 0.1932 -0.3304
vn 0.9943 0.1063 -0.0000
vn 0.9239 0.1932 0.3304
vn 0.9064 0.0829 0.4143
vn 0.9981 -0.0622 -0.0000
vn 0.6850 0.4331 -0.5859
vn 0.4636 0.7832 -0.4143
vn 0.4636 0.7832 0.4143
vn 0.6850 0.4331 0.5859
vn 0.3719 0.9283 -0.0000
vn 0.9064 0.0829 -0.4143
vn 0.5344 -0.8453 0.0000
vn 0.8229 -0.5682 0.0000
vn 0.8487 -0.4791 0.2241
vn 0.9734 -0.0486 -0.2241
vn 0.9110 -0.2638 -0.3169
vn 0.8487 -0.4791 -0.2241
vn 0.9734 -0.0486 0.2241
vn 0.9992 0.0406 0.0000
vn 0.9110 -0.2638 0.3169
vn 0.9485 -0.3169 0.0000
vn 0.9485 -0.2241 0.2241
vn 0.9485 0.2241 -0.2241
vn 0.9485 0.0000 -0.3169
vn 0.9485 -0.2241 -0.2241
vn 0.9485 0.2241 0.2241
vn 0.9485 0.3169 0.0000
vn 0.9485 -0.0000 0.3169
vn 0.9992 -0.0406 0.0000
vn 0.9734 0.0486 0.2241
vn 0.8487 0.4791 -0.2241
vn 0.9110 0.2638 -0.3169
vn 0.9734 0.0486 -0.2241
vn 0.8487 0.4791 0.2241
vn 0.8229 0.5682 0.0000
vn 0.9110 0.2638 0.3169
vn 0.9710 0.2390 0.0000
vn 0.9214 0.3174 0.2241
vn 0.6820 0.6962 -0.2241
vn 0.8017 0.5068 -0.3169
vn 0.9214 0.3174 -0.2241
vn 0.6820 0.6962 0.2241
vn 0.6324 0.7747 0.0000
vn 0.8017 0.5068 0.3169
usemtl Black
s 1
f 33//1 36//2 10//2 5//1
f 30//3 37//4 1//4 9//3
f 3//5 7//5 8//5 4//5
f 37//4 32//6 11//6 1//4
f 31//7 34//7 3//7
f 34//8 31//9 2//9 12//8
f 34//7 35//7 7//7 3//7
f 36//10 7//10 35//10
f 36//2 35//11 6//11 10//2
f 33//10 8//10 7//10 36//10
f 35//11 34//8 12//8 6//11
f 13//12 28//13 18//14 26//15
f 24//16 17//17 28//13 13//12
f 19//18 24//16 13//12 22//19
f 22//19 13//12 26//15 16//20
f 22//19 16//20 23//21 20//22
f 17//17 24//16 15//23 25//24
f 26//15 18//14 27//25 21//26
f 18//14 28//13 14//27 27//25
f 19//18 22//19 20//22 29//28
f 28//13 17//17 25//24 14//27
f 24//16 19//18 29//28 15//23
f 16//20 26//15 21//26 23//21
f 32//6 33//1 5//1 11//6
f 9//3 2//9 31//9 30//3
f 68//1 69//2 45//2 41//1
f 66//3 70//4 38//4 44//3
f 70//4 67//6 46//6 38//4
f 8//5 43//5 48//5 40//5 4//5
f 32//8 37//9 39//9 47//8
f 37//29 30//29 31//29 3//29 4//29
f 69//10 43//10 8//10 33//10
f 69//2 33//11 42//11 45//2
f 68//10 43//10 69//10
f 33//11 32//8 47//8 42//11
f 49//12 64//13 54//14 62//15
f 60//16 53//17 64//13 49//12
f 55//18 60//16 49//12 58//19
f 58//19 49//12 62//15 52//20
f 58//19 52//20 59//21 56//22
f 53//17 60//16 51//23 61//24
f 62//15 54//14 63//25 57//26
f 54//14 64//13 50//27 63//25
f 55//18 58//19 56//22 65//28
f 64//13 53//17 61//24 50//27
f 60//16 55//18 65//28 51//23
f 52//20 62//15 57//26 59//21
f 67//6 68//1 41//1 46//6
f 44//3 39//9 37//9 66//3
f 43//30 68//30 67//30 70//30 40//30 48//30
f 32//7 33//7 8//7 4//7 37//7
f 70//29 66//29 37//29 4//29 40//29
f 103//31 106//32 80//32 75//31
f 100//33 107//34 71//34 79//33
f 73//35 77//35 78//35 74//35
f 107//34 102//36 81//36 71//34
f 101//7 104//7 73//7
f 104//37 101//38 72//38 82//37
f 104//7 105//7 77//7 73//7
f 106//39 77//39 105//39
f 106//32 105//40 76//40 80//32
f 103//39 78//39 77//39 106//39
f 105//40 104//37 82//37 76//40
f 83//41 98//42 88//43 96//44
f 94//45 87//46 98//42 83//41
f 89//47 94//45 83//41 92//48
f 92//48 83//41 96//44 86//49
f 92//48 86//49 93//50 90//51
f 87//46 94//45 85//52 95//53
f 96//44 88//43 97//54 91//55
f 88//43 98//42 84//56 97//54
f 89//47 92//48 90//51 99//57
f 98//42 87//46 95//53 84//56
f 94//45 89//47 99//57 85//52
f 86//49 96//44 91//55 93//50
f 102//36 103//31 75//31 81//36
f 79//33 72//38 101//38 100//33
f 138//31 139//32 115//32 111//31
f 136//33 140//34 108//34 114//33
f 140//34 137//36 116//36 108//34
f 78//35 113//35 118//35 110//35 74//35
f 102//37 107//38 109//38 117//37
f 107//58 100//58 101//58 73//58 74//58
f 139//39 113//39 78//39 103//39
f 139//32 103//40 112//40 115//32
f 138//39 113//39 139//39
f 103//40 102//37 117//37 112//40
f 119//41 134//42 124//43 132//44
f 130//45 123//46 134//42 119//41
f 125//47 130//45 119//41 128//48
f 128//48 119//41 132//44 122//49
f 128//48 122//49 129//50 126//51
f 123//46 130//45 121//52 131//53
f 132//44 124//43 133//54 127//55
f 124//43 134//42 120//56 133//54
f 125//47 128//48 126//51 135//57
f 134//42 123//46 131//53 120//56
f 130//45 125//47 135//57 121//52
f 122//49 132//44 127//55 129//50
f 137//36 138//31 111//31 116//36
f 114//33 109//38 107//38 136//33
f 113//30 138//30 137//30 140//30 110//30 118//30
f 102//7 103//7 78//7 74//7 107//7
f 140//58 136//58 107//58 74//58 110//58
f 173//59 176//60 150//60 145//59
f 170//61 177//62 141//62 149//61
f 143//63 147//63 148//63 144//63
f 177//62 172//64 151//64 141//62
f 171//7 174//7 143//7
f 174//65 171//66 142//66 152//65
f 174//7 175//7 147//7 143//7
f 176//67 147//67 175//67
f 176//60 175//68 146//68 150//60
f 173//67 148//67 147//67 176//67
f 175//68 174//65 152//65 146//68
f 153//69 168//70 158//71 166//72
f 164//73 157//74 168//70 153//69
f 159//75 164//73 153//69 162//76
f 162//76 153//69 166//72 156//77
f 162//76 156//77 163//78 160//79
f 157//74 164//73 155//80 165//81
f 166//72 158//71 167//82 161//83
f 158//71 168//70 154//84 167//82
f 159//75 162//76 160//79 169//85
f 168//70 157//74 165//81 154//84
f 164//73 159//75 169//85 155//80
f 156//77 166//72 161//83 163//78
f 172//64 173//59 145//59 151//64
f 149//61 142//66 171//66 170//61
f 208//59 209//60 185//60 181//59
f 206//61 210//62 178//62 184//61
f 210//62 207//64 186//64 178//62
f 148//63 183//63 188//63 180//63 144//63
f 172//65 177//66 179//66 187//65
f 177//86 170//86 171//86 143//86 144//86
f 209//67 183//67 148//67 173//67
f 209//60 173//68 182//68 185//60
f 208//67 183//67 209//67
f 173//68 172//65 187//65 182//68
f 189//69 204//70 194//71 202//72
f 200//73 193//74 204//70 189//69
f 195//75 200//73 189//69 198//76
f 198//76 189//69 202//72 192//77
f 198//76 192//77 199//78 196//79
f 193//74 200//73 191//80 201//81
f 202//72 194//71 203//82 197//83
f 194//71 204//70 190//84 203//82
f 195//75 198//76 196//79 205//85
f 204//70 193//74 201//81 190//84
f 200//73 195//75 205//85 191//80
f 192//77 202//72 197//83 199//78
f 207//64 208//59 181//59 186//64
f 184//61 179//66 177//66 206//61
f 183//30 208//30 207//30 210//30 180//30 188//30
f 172//7 173//7 148//7 144//7 177//7
f 210//86 206//86 177//86 144//86 180//86
f 243//87 246//88 220//88 215//87
f 240//89 247//90 211//90 219//89
f 213//91 217//91 218//91 214//91
f 247//90 242//92 221//92 211//90
f 241//7 244//7 213//7
f 244//93 241//94 212//94 222//93
f 244//7 245//7 217//7 213//7
f 246//95 217//95 245//95
f 246//88 245//96 216//96 220//88
f 243//95 218//95 217//95 246//95
f 245//96 244//93 222//93 216//96
f 223//97 238//98 228//99 236//100
f 234//101 227//102 238//98 223//97
f 229//103 234//101 223//97 232//104
f 232//104 223//97 236//100 226//105
f 232//104 226//105 233//106 230//107
f 227//102 234//101 225//108 235//109
f 236//100 228//99 237//110 231//111
f 228//99 238//98 224//112 237//110
f 229//103 232//104 230//107 239//113
f 238//98 227//102 235//109 224//112
f 234//101 229//103 239//113 225//108
f 226//105 236//100 231//111 233//106
f 242//92 243//87 215//87 221//92
f 219//89 212//94 241//94 240//89
f 278//87 279//88 255//88 251//87
f 276//89 280//90 248//90 254//89
f 280//90 277//92 256//92 248//90
f 218//91 253//91 258//91 250//91 214//91
f 242//93 247//94 249//94 257//93
f 247//114 240//114 241//114 213//114 214//114
f 279//95 253//95 218//95 243//95
f 279//88 243//96 252//96 255//88
f 278//95 253//95 279//95
f 243//96 242//93 257//93 252//96
f 259//97 274//98 264//99 272//100
f 270//101 263//102 274//98 259//97
f 265//103 270//101 259//97 268//104
f 268//104 259//97 272//100 262//105
f 268//104 262//105 269//106 266//107
f 263//102 270//101 261//108 271//109
f 272//100 264//99 273//110 267//111
f 264//99 274//98 260//112 273//110
f 265//103 268//104 266//107 275//113
f 274//98 263//102 271//109 260//112
f 270//101 265//103 275//113 261//108
f 262//105 272//100 267//111 269//106
f 277//92 278//87 251//87 256//92
f 254//89 249//94 247//94 276//89
f 253//30 278//30 277//30 280//30 250//30 258//30
f 242//7 243//7 218//7 214//7 247//7
f 280//114 276//114 247//114 214//114 250//114
usemtl Silver
f 14//115 25//116 5//116 10//115
f 23//117 21//118 12//118 2//117
f 21//118 27//119 6//119 12//118
f 29//120 20//121 9//121 1//120
f 27//119 14//115 10//115 6//119
f 25//116 15//122 11//122 5//116
f 15//122 29//120 1//120 11//122
f 20//121 23//117 2//117 9//121
f 50//115 61//116 41//116 45//115
f 59//117 57//118 47//118 39//117
f 57//118 63//119 42//119 47//118
f 65//120 56//121 44//121 38//120
f 63//119 50//115 45//115 42//119
f 61//116 51//122 46//122 41//116
f 51//122 65//120 38//120 46//122
f 56//121 59//117 39//117 44//121
f 84//123 95//124 75//124 80//123
f 93//125 91//126 82//126 72//125
f 91//126 97//127 76//127 82//126
f 99//128 90//129 79//129 71//128
f 97//127 84//123 80//123 76//127
f 95//124 85//130 81//130 75//124
f 85//130 99//128 71//128 81//130
f 90//129 93//125 72//125 79//129
f 120//123 131//124 111//124 115//123
f 129//125 127//126 117//126 109//125
f 127//126 133//127 112//127 117//126
f 135//128 126//129 114//129 108//128
f 133//127 120//123 115//123 112//127
f 131//124 121//130 116//130 111//124
f 121//130 135//128 108//128 116//130
f 126//129 129//125 109//125 114//129
f 154//131 165//132 145//132 150//131
f 163//133 161//134 152//134 142//133
f 161//134 167//135 146//135 152//134
f 169//136 160//137 149//137 141//136
f 167//135 154//131 150//131 146//135
f 165//132 155//138 151//138 145//132
f 155//138 169//136 141//136 151//138
f 160//137 163//133 142//133 149//137
f 190//131 201//132 181//132 185//131
f 199//133 197//134 187//134 179//133
f 197//134 203//135 182//135 187//134
f 205//136 196//137 184//137 178//136
f 203//135 190//131 185//131 182//135
f 201//132 191//138 186//138 181//132
f 191//138 205//136 178//136 186//138
f 196//137 199//133 179//133 184//137
f 224//139 235//140 215//140 220//139
f 233//141 231//142 222//142 212//141
f 231//142 237//143 216//143 222//142
f 239//144 230//145 219//145 211//144
f 237//143 224//139 220//139 216//143
f 235//140 225//146 221//146 215//140
f 225//146 239//144 211//144 221//146
f 230//145 233//141 212//141 219//145
f 260//139 271//140 251//140 255//139
f 269//141 267//142 257//142 249//141
f 267//142 273//143 252//143 257//142
f 275//144 266//145 254//145 248//144
f 273//143 260//139 255//139 252//143
f 271//140 261//146 256//146 251//140
f 261//146 275//144 248//144 256//146
f 266//145 269//141 249//141 254//145
