# Blender v2.79 (sub 0) OBJ File: ''
# www.blender.org
mtllib speaker_floor.mtl
o Cube.002
v -0.470140 0.980856 0.466901
v -0.186943 0.783152 0.466901
v 0.010762 0.980856 0.466901
v -0.470140 0.019054 0.466901
v -0.186943 0.216759 0.466901
v -0.470140 0.099455 0.466901
v 0.972565 0.019054 -0.480901
v -0.951041 0.499955 -0.480901
v 0.972565 0.499955 -0.480901
v 0.010761 0.499955 0.466901
v 0.010762 0.019054 0.466901
v -0.951041 0.499955 0.466901
v -0.951041 0.019054 -0.480901
v -0.951041 0.019054 0.466901
v -0.753336 0.216759 0.466901
v -0.870640 0.499955 0.466901
v -0.951041 0.980856 0.466901
v -0.753336 0.783152 0.466901
v -0.470140 0.900456 0.466901
v -0.470140 0.499955 0.466960
v -0.528985 0.558800 0.444150
v -0.553359 0.499955 0.444150
v -0.411295 0.558800 0.444150
v -0.386920 0.499955 0.444150
v -0.411295 0.441110 0.444150
v -0.470140 0.416736 0.444150
v -0.528985 0.441110 0.444150
v -0.470140 0.351219 0.396785
v -0.364968 0.605127 0.396785
v -0.618876 0.499955 0.396785
v -0.470140 0.583175 0.444150
v -0.575312 0.605127 0.396785
v -0.364968 0.394783 0.396785
v -0.470140 0.648691 0.396785
v -0.321404 0.499955 0.396785
v -0.575312 0.394783 0.396785
v -0.069639 0.499955 0.466901
v 0.491663 0.980856 0.466901
v 0.774860 0.783152 0.466901
v 0.972564 0.980856 0.466901
v 0.491663 0.019054 0.466901
v 0.774860 0.216759 0.466901
v 0.491663 0.099455 0.466901
v 0.972564 0.499955 0.466901
v 0.972564 0.019054 0.466901
v 0.208467 0.216759 0.466901
v 0.091163 0.499955 0.466901
v 0.208466 0.783152 0.466901
v 0.491663 0.900456 0.466901
v 0.491663 0.499955 0.466960
v 0.432818 0.558800 0.444150
v 0.408444 0.499955 0.444150
v 0.550508 0.558800 0.444150
v 0.574883 0.499955 0.444150
v 0.550508 0.441110 0.444150
v 0.491663 0.416736 0.444150
v 0.432818 0.441110 0.444150
v 0.491663 0.351219 0.396785
v 0.640399 0.499955 0.396785
v 0.596835 0.605127 0.396785
v 0.342927 0.499955 0.396785
v 0.491663 0.583175 0.444150
v 0.386491 0.605127 0.396785
v 0.596835 0.394783 0.396785
v 0.491663 0.648691 0.396785
v 0.386491 0.394783 0.396785
v 0.892164 0.499955 0.466901
vn -0.1897 -0.1897 0.9633
vn 0.0000 -0.2683 0.9633
vn 0.2683 -0.0000 0.9633
vn 0.1897 0.1897 0.9633
vn 0.1897 -0.1897 0.9633
vn 0.0000 0.2683 0.9633
vn -0.1897 0.1897 0.9633
vn -0.2683 0.0000 0.9633
vn 0.0000 -0.0000 1.0000
vn 0.0000 0.0000 -1.0000
vn -1.0000 -0.0000 0.0000
vn -0.3300 0.3300 0.8844
vn -0.4667 -0.0000 0.8844
vn 0.3300 0.3300 0.8844
vn 0.4667 -0.0000 0.8844
vn 0.3300 -0.3300 0.8844
vn 0.0000 -0.4667 0.8844
vn -0.3300 -0.3300 0.8844
vn 0.0000 -0.5859 0.8104
vn 0.4143 0.4143 0.8104
vn -0.5859 -0.0000 0.8104
vn 0.0000 0.4667 0.8844
vn -0.4143 0.4143 0.8104
vn 0.4143 -0.4143 0.8104
vn 0.0000 0.5859 0.8104
vn 0.5859 -0.0000 0.8104
vn -0.4143 -0.4143 0.8104
vn 1.0000 0.0000 0.0000
vn 0.0000 0.8918 -0.4525
vn 0.0000 -1.0000 -0.0000
usemtl Silver
s 1
f 29//1 19//2 34//2
f 30//3 15//4 36//4
f 32//5 16//3 30//3
f 28//6 5//7 33//7
f 34//2 18//5 32//5
f 35//8 2//1 29//1
f 33//7 37//8 35//8
f 36//4 6//6 28//6
f 60//1 49//2 65//2
f 61//3 46//4 66//4
f 63//5 47//3 61//3
f 58//6 42//7 64//7
f 63//5 49//2 48//5
f 59//8 39//1 60//1
f 59//8 42//7 67//8
f 58//6 46//4 43//6
f 29//1 2//1 19//2
f 30//3 16//3 15//4
f 32//5 18//5 16//3
f 28//6 6//6 5//7
f 34//2 19//2 18//5
f 35//8 37//8 2//1
f 33//7 5//7 37//8
f 36//4 15//4 6//6
f 60//1 39//1 49//2
f 61//3 47//3 46//4
f 63//5 48//5 47//3
f 58//6 43//6 42//7
f 63//5 65//2 49//2
f 59//8 67//8 39//1
f 59//8 64//7 42//7
f 58//6 66//4 46//4
usemtl Black
f 1//9 2//9 3//9
f 4//9 5//9 6//9
f 7//10 8//10 9//10
f 10//9 5//9 11//9
f 12//11 13//11 14//11
f 12//9 15//9 16//9
f 12//11 17//11 8//11
f 1//9 18//9 19//9
f 12//9 18//9 17//9
f 20//9 21//12 22//13
f 23//14 20//9 24//15
f 25//16 20//9 26//17
f 20//9 27//18 26//17
f 27//18 28//19 26//17
f 24//15 29//20 23//14
f 21//12 30//21 22//13
f 31//22 32//23 21//12
f 26//17 33//24 25//16
f 23//14 34//25 31//22
f 25//16 35//26 24//15
f 22//13 36//27 27//18
f 10//9 2//9 37//9
f 15//9 4//9 6//9
f 38//9 39//9 40//9
f 41//9 42//9 43//9
f 40//28 44//28 9//28
f 44//9 42//9 45//9
f 10//9 46//9 47//9
f 8//29 1//29 3//29
f 7//30 45//30 41//30
f 45//28 9//28 44//28
f 38//9 48//9 49//9
f 10//9 48//9 3//9
f 50//9 51//12 52//13
f 53//14 50//9 54//15
f 55//16 50//9 56//17
f 50//9 57//18 56//17
f 57//18 58//19 56//17
f 53//14 59//26 60//20
f 51//12 61//21 52//13
f 62//22 63//23 51//12
f 56//17 64//24 55//16
f 53//14 65//25 62//22
f 55//16 59//26 54//15
f 57//18 61//21 66//27
f 44//9 39//9 67//9
f 46//9 41//9 43//9
f 1//9 19//9 2//9
f 4//9 11//9 5//9
f 7//10 13//10 8//10
f 10//9 37//9 5//9
f 12//11 8//11 13//11
f 12//9 14//9 15//9
f 1//9 17//9 18//9
f 12//9 16//9 18//9
f 20//9 31//22 21//12
f 23//14 31//22 20//9
f 25//16 24//15 20//9
f 20//9 22//13 27//18
f 27//18 36//27 28//19
f 24//15 35//26 29//20
f 21//12 32//23 30//21
f 31//22 34//25 32//23
f 26//17 28//19 33//24
f 23//14 29//20 34//25
f 25//16 33//24 35//26
f 22//13 30//21 36//27
f 10//9 3//9 2//9
f 15//9 14//9 4//9
f 38//9 49//9 39//9
f 41//9 45//9 42//9
f 44//9 67//9 42//9
f 10//9 11//9 46//9
f 40//29 9//29 38//29
f 9//29 8//29 3//29
f 38//29 9//29 3//29
f 8//29 17//29 1//29
f 41//30 11//30 7//30
f 11//30 4//30 13//30
f 4//30 14//30 13//30
f 13//30 7//30 11//30
f 45//28 7//28 9//28
f 38//9 3//9 48//9
f 10//9 47//9 48//9
f 50//9 62//22 51//12
f 53//14 62//22 50//9
f 55//16 54//15 50//9
f 50//9 52//13 57//18
f 57//18 66//27 58//19
f 53//14 54//15 59//26
f 51//12 63//23 61//21
f 62//22 65//25 63//23
f 56//17 58//19 64//24
f 53//14 60//20 65//25
f 55//16 64//24 59//26
f 57//18 52//13 61//21
f 44//9 40//9 39//9
f 46//9 11//9 41//9
