# Blender v2.79 (sub 0) OBJ File: 'headbanger_props_dec.blend'
# www.blender.org
mtllib speaker_tower.mtl
o Cube
v 1.000000 0.533922 -0.588887
v 1.000000 0.533922 0.588888
v -1.000000 0.122809 1.000000
v -1.000000 0.122809 -1.000000
v 1.000000 1.711697 -0.588887
v 1.000000 1.711696 0.588888
v -1.000000 2.122809 1.000000
v -1.000000 2.122809 -1.000000
v 1.000000 0.289997 0.000000
v 1.000000 1.955622 0.000001
v -1.000000 2.122809 -0.000000
v 1.000000 1.122809 -0.832812
v 1.000000 1.122809 0.832813
v 0.971011 1.122809 0.000000
v 0.825087 1.432095 0.000000
v 0.825087 1.122809 -0.309285
v 0.923579 1.000445 0.122364
v 0.923579 1.245173 -0.122364
v 0.923579 1.245173 0.122364
v 0.923579 1.000445 -0.122364
v 0.825087 0.813524 0.000000
v 0.825087 1.122809 0.309286
v 0.923579 0.949760 0.000000
v 0.825087 0.904111 0.218698
v 0.923579 1.122809 -0.173049
v 0.825087 1.341507 -0.218698
v 0.923579 1.122809 0.173049
v 0.825086 1.341507 0.218698
v 0.923579 1.295858 0.000000
v 0.825087 0.904111 -0.218698
v 0.935055 0.122809 0.000000
v 0.935055 0.122809 1.000000
v 0.935056 1.122809 -1.000000
v 0.935056 2.122809 -0.999999
v 0.935055 1.122809 1.000000
v 0.935055 2.122809 1.000001
v 0.935055 2.122809 0.000001
v 0.935055 0.122809 -1.000000
v 1.000000 2.533922 -0.588887
v 1.000000 2.533922 0.588888
v 1.000000 3.711697 -0.588887
v 1.000000 3.711696 0.588888
v -1.000000 4.122809 1.000000
v -1.000000 4.122809 -1.000000
v 1.000000 2.289997 0.000000
v 1.000000 3.955622 0.000001
v -1.000000 4.122809 -0.000000
v 1.000000 3.122809 -0.832812
v 1.000000 3.122809 0.832813
v 0.971011 3.122809 0.000000
v 0.825087 3.432095 0.000000
v 0.825087 3.122809 -0.309285
v 0.923579 3.000445 0.122364
v 0.923579 3.245173 -0.122364
v 0.923579 3.245173 0.122364
v 0.923579 3.000445 -0.122364
v 0.825087 2.813524 0.000000
v 0.825087 3.122809 0.309286
v 0.923579 2.949760 0.000000
v 0.825087 2.904111 0.218698
v 0.923579 3.122809 -0.173049
v 0.825087 3.341507 -0.218698
v 0.923579 3.122809 0.173049
v 0.825086 3.341507 0.218698
v 0.923579 3.295858 0.000000
v 0.825087 2.904111 -0.218698
v 0.935056 3.122809 -1.000000
v 0.935056 4.122809 -0.999999
v 0.935055 3.122809 1.000000
v 0.935055 4.122809 1.000001
v 0.935055 4.122809 0.000001
v 1.000000 4.533922 -0.588887
v 1.000000 4.533922 0.588888
v 1.000000 5.711697 -0.588887
v 1.000000 5.711696 0.588888
v -1.000000 6.122809 1.000000
v -1.000000 6.122809 -1.000000
v 1.000000 4.289997 0.000000
v 1.000000 5.955621 0.000001
v -1.000000 6.122809 -0.000000
v 1.000000 5.122809 -0.832812
v 1.000000 5.122809 0.832813
v 0.971011 5.122809 0.000000
v 0.825087 5.432095 0.000000
v 0.825087 5.122809 -0.309285
v 0.923579 5.000445 0.122364
v 0.923579 5.245173 -0.122364
v 0.923579 5.245173 0.122364
v 0.923579 5.000445 -0.122364
v 0.825087 4.813524 0.000000
v 0.825087 5.122809 0.309286
v 0.923579 4.949760 0.000000
v 0.825087 4.904111 0.218698
v 0.923579 5.122809 -0.173049
v 0.825087 5.341507 -0.218698
v 0.923579 5.122809 0.173049
v 0.825086 5.341507 0.218698
v 0.923579 5.295858 0.000000
v 0.825087 4.904111 -0.218698
v 0.935056 5.122809 -1.000000
v 0.935056 6.122809 -0.999999
v 0.935055 5.122809 1.000000
v 0.935055 6.122809 1.000001
v 0.935055 6.122809 0.000001
v 1.000000 6.533922 -0.588887
v 1.000000 6.533921 0.588888
v 1.000000 7.711697 -0.588887
v 1.000000 7.711696 0.588888
v -1.000000 8.122809 1.000000
v -1.000000 8.122809 -1.000000
v 1.000000 6.289997 0.000000
v 1.000000 7.955621 0.000001
v 1.000000 7.122809 -0.832812
v 1.000000 7.122809 0.832813
v 0.971011 7.122809 0.000000
v 0.825087 7.432095 0.000000
v 0.825087 7.122809 -0.309285
v 0.923579 7.000445 0.122364
v 0.923579 7.245173 -0.122364
v 0.923579 7.245173 0.122364
v 0.923579 7.000445 -0.122364
v 0.825087 6.813523 0.000000
v 0.825087 7.122809 0.309286
v 0.923579 6.949760 0.000000
v 0.825087 6.904111 0.218698
v 0.923579 7.122809 -0.173049
v 0.825087 7.341507 -0.218698
v 0.923579 7.122809 0.173049
v 0.825086 7.341507 0.218698
v 0.923579 7.295858 0.000000
v 0.825087 6.904111 -0.218698
v 0.935056 7.122809 -1.000000
v 0.935056 8.122809 -0.999999
v 0.935055 7.122809 1.000000
v 0.935055 8.122809 1.000001
v 0.935055 8.122809 0.000001
vn 0.9866 0.1152 -0.1152
vn 0.9801 0.1985 0.0000
vn 0.9801 -0.1985 -0.0000
vn 0.9866 -0.1152 -0.1152
vn -1.0000 -0.0000 -0.0000
vn 0.0000 0.0000 -1.0000
vn 0.9801 -0.0000 -0.1985
vn -0.0000 -0.0000 1.0000
vn 0.9801 0.0000 0.1985
vn 0.9866 -0.1152 0.1152
vn 0.9866 0.1152 0.1152
vn 1.0000 0.0000 0.0000
vn 0.8973 0.4415 0.0000
vn 0.8842 0.3304 0.3304
vn 0.8973 0.0000 0.4415
vn 0.8973 0.0000 -0.4415
vn 0.8842 0.3304 -0.3304
vn 0.8842 -0.3304 -0.3304
vn 0.8973 -0.4415 -0.0000
vn 0.8842 -0.3304 0.3304
vn 0.8104 -0.4143 0.4143
vn 0.8104 -0.5859 0.0000
vn 0.8104 0.0000 -0.5859
vn 0.8104 0.4143 -0.4143
vn 0.8104 0.4143 0.4143
vn 0.8104 0.0000 0.5859
vn 0.8104 0.5859 0.0000
vn 0.8104 -0.4143 -0.4143
vn 0.0000 1.0000 0.0000
vn 0.0000 -1.0000 0.0000
vn 0.9485 -0.3169 0.0000
vn 0.9485 -0.2241 0.2241
vn 0.9485 0.2241 -0.2241
vn 0.9485 0.0000 -0.3169
vn 0.9485 -0.2241 -0.2241
vn 0.9485 0.2241 0.2241
vn 0.9485 0.3169 0.0000
vn 0.9485 -0.0000 0.3169
usemtl Black
s 1
f 34//1 37//2 10//2 5//1
f 31//3 38//4 1//4 9//3
f 3//5 7//5 11//5 8//5 4//5
f 34//6 33//6 4//6 8//6
f 38//4 33//7 12//7 1//4
f 32//8 35//8 3//8
f 35//9 32//10 2//10 13//9
f 33//6 38//6 4//6
f 35//8 36//8 7//8 3//8
f 37//2 36//11 6//11 10//2
f 36//11 35//9 13//9 6//11
f 14//12 29//13 19//14 27//15
f 25//16 18//17 29//13 14//12
f 20//18 25//16 14//12 23//19
f 23//19 14//12 27//15 17//20
f 23//19 17//20 24//21 21//22
f 18//17 25//16 16//23 26//24
f 27//15 19//14 28//25 22//26
f 19//14 29//13 15//27 28//25
f 20//18 23//19 21//22 30//28
f 29//13 18//17 26//24 15//27
f 25//16 20//18 30//28 16//23
f 17//20 27//15 22//26 24//21
f 33//7 34//1 5//1 12//7
f 9//3 2//10 32//10 31//3
f 68//1 71//2 46//2 41//1
f 37//3 34//4 39//4 45//3
f 7//5 43//5 47//5 44//5 8//5 11//5
f 68//6 67//6 8//6 44//6
f 34//4 67//7 48//7 39//4
f 36//8 69//8 7//8
f 69//9 36//10 40//10 49//9
f 67//6 34//6 8//6
f 69//8 70//8 43//8 7//8
f 71//2 70//11 42//11 46//2
f 70//11 69//9 49//9 42//11
f 50//12 65//13 55//14 63//15
f 61//16 54//17 65//13 50//12
f 56//18 61//16 50//12 59//19
f 59//19 50//12 63//15 53//20
f 59//19 53//20 60//21 57//22
f 54//17 61//16 52//23 62//24
f 63//15 55//14 64//25 58//26
f 55//14 65//13 51//27 64//25
f 56//18 59//19 57//22 66//28
f 65//13 54//17 62//24 51//27
f 61//16 56//18 66//28 52//23
f 53//20 63//15 58//26 60//21
f 67//7 68//1 41//1 48//7
f 45//3 40//10 36//10 37//3
f 101//1 104//2 79//2 74//1
f 71//3 68//4 72//4 78//3
f 43//5 76//5 80//5 77//5 44//5 47//5
f 101//6 100//6 44//6 77//6
f 68//4 100//7 81//7 72//4
f 70//8 102//8 43//8
f 102//9 70//10 73//10 82//9
f 100//6 68//6 44//6
f 102//8 103//8 76//8 43//8
f 104//2 103//11 75//11 79//2
f 103//11 102//9 82//9 75//11
f 83//12 98//13 88//14 96//15
f 94//16 87//17 98//13 83//12
f 89//18 94//16 83//12 92//19
f 92//19 83//12 96//15 86//20
f 92//19 86//20 93//21 90//22
f 87//17 94//16 85//23 95//24
f 96//15 88//14 97//25 91//26
f 88//14 98//13 84//27 97//25
f 89//18 92//19 90//22 99//28
f 98//13 87//17 95//24 84//27
f 94//16 89//18 99//28 85//23
f 86//20 96//15 91//26 93//21
f 100//7 101//1 74//1 81//7
f 78//3 73//10 70//10 71//3
f 133//1 136//2 112//2 107//1
f 104//3 101//4 105//4 111//3
f 76//5 109//5 110//5 77//5 80//5
f 133//6 132//6 77//6 110//6
f 101//4 132//7 113//7 105//4
f 103//8 134//8 76//8
f 134//9 103//10 106//10 114//9
f 132//6 101//6 77//6
f 134//8 135//8 109//8 76//8
f 136//2 135//11 108//11 112//2
f 135//11 134//9 114//9 108//11
f 115//12 130//13 120//14 128//15
f 126//16 119//17 130//13 115//12
f 121//18 126//16 115//12 124//19
f 124//19 115//12 128//15 118//20
f 124//19 118//20 125//21 122//22
f 119//17 126//16 117//23 127//24
f 128//15 120//14 129//25 123//26
f 120//14 130//13 116//27 129//25
f 121//18 124//19 122//22 131//28
f 130//13 119//17 127//24 116//27
f 126//16 121//18 131//28 117//23
f 118//20 128//15 123//26 125//21
f 132//7 133//1 107//1 113//7
f 111//3 106//10 103//10 104//3
f 133//29 110//29 109//29 135//29 136//29
f 38//30 31//30 32//30 3//30 4//30
usemtl Silver
f 15//31 26//32 5//32 10//31
f 24//33 22//34 13//34 2//33
f 22//34 28//35 6//35 13//34
f 30//36 21//37 9//37 1//36
f 28//35 15//31 10//31 6//35
f 26//32 16//38 12//38 5//32
f 16//38 30//36 1//36 12//38
f 21//37 24//33 2//33 9//37
f 51//31 62//32 41//32 46//31
f 60//33 58//34 49//34 40//33
f 58//34 64//35 42//35 49//34
f 66//36 57//37 45//37 39//36
f 64//35 51//31 46//31 42//35
f 62//32 52//38 48//38 41//32
f 52//38 66//36 39//36 48//38
f 57//37 60//33 40//33 45//37
f 84//31 95//32 74//32 79//31
f 93//33 91//34 82//34 73//33
f 91//34 97//35 75//35 82//34
f 99//36 90//37 78//37 72//36
f 97//35 84//31 79//31 75//35
f 95//32 85//38 81//38 74//32
f 85//38 99//36 72//36 81//38
f 90//37 93//33 73//33 78//37
f 116//31 127//32 107//32 112//31
f 125//33 123//34 114//34 106//33
f 123//34 129//35 108//35 114//34
f 131//36 122//37 111//37 105//36
f 129//35 116//31 112//31 108//35
f 127//32 117//38 113//38 107//32
f 117//38 131//36 105//36 113//38
f 122//37 125//33 106//33 111//37
